{"title":"Lost Boys.The.Thirst.2010.DVDRiP.XviD.OPTIONAL-MULTISUB-Zen_Bud ","uid":5896120,"size":763535276,"categoryP":"video","categoryS":"movies","magnet":"?xt=urn:btih:3f30aff66c6eeb05fe5a5bb278af828d6d272eb2&amp;dn=Lost+Boys.The.Thirst.2010.DVDRiP.XviD.OPTIONAL-MULTISUB-Zen_Bud+&amp;tr=udp%3A%2F%2Ftracker.openbittorrent.com%3A80&amp;tr=udp%3A%2F%2Fopen.demonii.com%3A1337&amp;tr=udp%3A%2F%2Ftracker.coppersurfer.tk%3A6969&amp;tr=udp%3A%2F%2Fexodus.desync.com%3A6969","seeders":0,"leechers":1,"uploader":"Zen_Bud","files":-1,"time":1287503469,"description":"\n****** Lost Boys.The.Thirst.2010.DVDRiP.XviD.OPTIONAL-MULTISUB-Zen_Bud ******\n\nFormat                           : AVI\nFile size                        : 705 MiB\nDuration                         : 1h 18mn\nOverall bit rate                 : 1 264 Kbps\n\nVideo\n\nFormat                           : MPEG-4 Visual\nCodec ID/Hint                    : XviD\nDuration                         : 1h 18mn\nBit rate                         : 1 123 Kbps\nWidth                            : 718 pixels\nHeight                           : 428 pixels\nDisplay aspect ratio             : 2.35:1\nStream size                      : 627 MiB (89%)\nWriting library                  : XviD 1.1.2 (UTC 2006-11-01)\n\nAudio\n\nFormat                           : MPEG Audio\nCodec ID/Hint                    : MP3\nDuration                         : 1h 18mn\nBit rate                         : 128 Kbps\nChannel(s)                       : 2 channels\nSampling rate                    : 48.0 KHz\nStream size                      : 71.4 MiB (10%)\nWriting library                  : LAME3.98\nLanguage                         : English\n\nText #1\nLanguage                         : English\n\nText #2\nLanguage                         : Danish\n\nText #3\nLanguage                         : Dutch\n\nText #4\nLanguage                         : Finnish\n\nText #5\nLanguage                         : French\n\nText #6\nLanguage                         : German\n\nText #7\nLanguage                         : Norwegian\n\nText #8\nLanguage                         : Spanish\n\nText #9\nLanguage                         : Swedish\n\n\n\n\nThe thankless life of a vampire hunter has taken its toll on Edgar Frog. After losing best friend and fellow vamp fighter...","torrent":{"xt":"urn:btih:3f30aff66c6eeb05fe5a5bb278af828d6d272eb2","amp;dn":"Lost+Boys.The.Thirst.2010.DVDRiP.XviD.OPTIONAL-MULTISUB-Zen_Bud+","amp;tr":["udp%3A%2F%2Ftracker.openbittorrent.com%3A80","udp%3A%2F%2Fopen.demonii.com%3A1337","udp%3A%2F%2Ftracker.coppersurfer.tk%3A6969","udp%3A%2F%2Fexodus.desync.com%3A6969"],"infoHash":"3f30aff66c6eeb05fe5a5bb278af828d6d272eb2","infoHashBuffer":{"type":"Buffer","data":[63,48,175,246,108,110,235,5,254,90,91,178,120,175,130,141,109,39,46,178]},"announce":[],"urlList":[]}}